<svg width="25" height="25" viewBox="0 0 25 25" fill="none" xmlns="http://www.w3.org/2000/svg">
<path d="M19.9697 3.96967C19.6768 4.26256 19.6768 4.73744 19.9697 5.03033C20.2626 5.32322 20.7374 5.32322 21.0303 5.03033L19.9697 3.96967ZM23.0303 3.03033C23.3232 2.73744 23.3232 2.26256 23.0303 1.96967C22.7374 1.67678 22.2626 1.67678 21.9697 1.96967L23.0303 3.03033ZM21.9697 1.96967L19.9697 3.96967L21.0303 5.03033L23.0303 3.03033L21.9697 1.96967Z" fill="white"/>
<path d="M19.9967 12.2619L19.4664 11.7316H19.4664L19.9967 12.2619ZM17.0933 12.9877L17.6236 12.4574L17.0933 12.9877ZM19.2708 12.9877L19.8012 13.5181L19.2708 12.9877ZM12.0123 5.72916L11.4819 5.19883H11.4819L12.0123 5.72916ZM12.0123 7.90674L11.4819 8.43707L12.0123 7.90674ZM12.7381 5.0033L13.2684 5.53363L12.7381 5.0033ZM12.2078 4.47297L11.4819 5.19883L12.5426 6.25949L13.2684 5.53363L12.2078 4.47297ZM11.4819 8.43707L16.5629 13.5181L17.6236 12.4574L12.5426 7.37641L11.4819 8.43707ZM19.8012 13.5181L20.527 12.7922L19.4664 11.7316L18.7405 12.4574L19.8012 13.5181ZM20.527 12.7922C22.8243 10.4949 22.8243 6.77027 20.527 4.47297L19.4664 5.53363C21.1779 7.24514 21.1779 10.02 19.4664 11.7316L20.527 12.7922ZM13.2684 5.53363C14.98 3.82212 17.7549 3.82212 19.4664 5.53363L20.527 4.47297C18.2297 2.17568 14.5051 2.17568 12.2078 4.47297L13.2684 5.53363ZM12.5426 7.37641C12.3131 7.1469 12.2519 6.95527 12.25 6.82326C12.2482 6.69624 12.2993 6.5028 12.5426 6.25949L11.4819 5.19883C11.021 5.65975 10.7413 6.22436 10.7502 6.84472C10.759 7.46007 11.05 8.00512 11.4819 8.43707L12.5426 7.37641ZM18.7405 12.4574C18.511 12.6869 18.3194 12.7481 18.1874 12.75C18.0603 12.7518 17.8669 12.7007 17.6236 12.4574L16.5629 13.5181C17.0239 13.979 17.5885 14.2587 18.2088 14.2498C18.8242 14.241 19.3692 13.95 19.8012 13.5181L18.7405 12.4574Z" fill="white"/>
<path d="M5.03033 21.0303C5.32322 20.7374 5.32322 20.2626 5.03033 19.9697C4.73744 19.6768 4.26256 19.6768 3.96967 19.9697L5.03033 21.0303ZM1.96967 21.9697C1.67678 22.2626 1.67678 22.7374 1.96967 23.0303C2.26256 23.3232 2.73744 23.3232 3.03033 23.0303L1.96967 21.9697ZM3.96967 19.9697L1.96967 21.9697L3.03033 23.0303L5.03033 21.0303L3.96967 19.9697Z" fill="white"/>
<path d="M5.0033 19.9967C2.9989 17.9923 2.9989 14.7425 5.0033 12.7381L5.72916 12.0123C6.43338 11.308 7.24528 11.3508 7.90674 12.0123L12.9877 17.0933C13.692 17.7975 13.6492 18.6094 12.9877 19.2708L12.2619 19.9967C10.2575 22.0011 7.0077 22.0011 5.0033 19.9967Z" fill="white"/>
<path d="M12.9877 17.0933L12.4574 17.6236L12.9877 17.0933ZM5.72916 12.0123L5.19883 11.4819L5.19883 11.4819L5.72916 12.0123ZM7.90674 12.0123L8.43707 11.4819L7.90674 12.0123ZM5.0033 12.7381L5.53363 13.2684V13.2684L5.0033 12.7381ZM5.53363 13.2684L6.25949 12.5426L5.19883 11.4819L4.47297 12.2078L5.53363 13.2684ZM7.37641 12.5426L12.4574 17.6236L13.5181 16.5629L8.43707 11.4819L7.37641 12.5426ZM12.4574 18.7405L11.7316 19.4664L12.7922 20.527L13.5181 19.8012L12.4574 18.7405ZM11.7316 19.4664C10.02 21.1779 7.24514 21.1779 5.53363 19.4664L4.47297 20.527C6.77027 22.8243 10.4949 22.8243 12.7922 20.527L11.7316 19.4664ZM4.47297 12.2078C2.17568 14.5051 2.17568 18.2297 4.47297 20.527L5.53363 19.4664C3.82212 17.7549 3.82212 14.98 5.53363 13.2684L4.47297 12.2078ZM8.43707 11.4819C8.00512 11.05 7.46007 10.759 6.84472 10.7502C6.22436 10.7413 5.65975 11.021 5.19883 11.4819L6.25949 12.5426C6.5028 12.2993 6.69624 12.2482 6.82326 12.25C6.95527 12.2519 7.1469 12.3131 7.37641 12.5426L8.43707 11.4819ZM13.5181 19.8012C13.95 19.3692 14.241 18.8242 14.2498 18.2088C14.2587 17.5885 13.979 17.0239 13.5181 16.5629L12.4574 17.6236C12.7007 17.8669 12.7518 18.0603 12.75 18.1874C12.7481 18.3194 12.6869 18.511 12.4574 18.7405L13.5181 19.8012Z" fill="white"/>
<path d="M10.4697 9.46967C10.1768 9.76256 10.1768 10.2374 10.4697 10.5303C10.7626 10.8232 11.2374 10.8232 11.5303 10.5303L10.4697 9.46967ZM13.0303 9.03033C13.3232 8.73744 13.3232 8.26256 13.0303 7.96967C12.7374 7.67678 12.2626 7.67678 11.9697 7.96967L13.0303 9.03033ZM14.4697 13.4697C14.1768 13.7626 14.1768 14.2374 14.4697 14.5303C14.7626 14.8232 15.2374 14.8232 15.5303 14.5303L14.4697 13.4697ZM17.0303 13.0303C17.3232 12.7374 17.3232 12.2626 17.0303 11.9697C16.7374 11.6768 16.2626 11.6768 15.9697 11.9697L17.0303 13.0303ZM11.5303 10.5303L13.0303 9.03033L11.9697 7.96967L10.4697 9.46967L11.5303 10.5303ZM15.5303 14.5303L17.0303 13.0303L15.9697 11.9697L14.4697 13.4697L15.5303 14.5303Z" fill="white"/>
</svg>
