<svg width="32" height="32" viewBox="0 0 32 32" fill="none" xmlns="http://www.w3.org/2000/svg">
<g clip-path="url(#clip0_0_6478)">
<path d="M31.5 16C31.5 24.5604 24.5604 31.5 16 31.5C7.43959 31.5 0.5 24.5604 0.5 16C0.5 7.43959 7.43959 0.5 16 0.5C24.5604 0.5 31.5 7.43959 31.5 16Z" fill="white" stroke="#D2D2D2"/>
<path d="M8.60021 20.4945C8.73576 20.3591 8.91954 20.283 9.11113 20.283H26.7911C27.1131 20.283 27.2744 20.6725 27.0465 20.9001L23.553 24.3908C23.4175 24.5263 23.2337 24.6024 23.0421 24.6024H5.36216C5.04009 24.6024 4.87886 24.2129 5.10669 23.9852L8.60021 20.4945Z" fill="#00FFA3"/>
<path d="M8.60021 7.46152C8.73576 7.32608 8.91954 7.25 9.11113 7.25H26.7911C27.1131 7.25 27.2744 7.63946 27.0465 7.86711L23.553 11.3579C23.4175 11.4933 23.2337 11.5694 23.0421 11.5694H5.36216C5.04009 11.5694 4.87886 11.1799 5.10669 10.9523L8.60021 7.46152Z" fill="#00FFA3"/>
<path d="M23.553 13.9622C23.4175 13.8267 23.2337 13.7507 23.0421 13.7507H5.36216C5.04009 13.7507 4.87886 14.1401 5.10669 14.3678L8.60021 17.8585C8.73576 17.9939 8.91954 18.07 9.11113 18.07H26.7911C27.1131 18.07 27.2744 17.6806 27.0465 17.4529L23.553 13.9622Z" fill="#00FFA3"/>
</g>
<defs>
<clipPath id="clip0_0_6478">
<rect width="32" height="32" fill="white"/>
</clipPath>
</defs>
</svg>
